<?xml version="1.0" standalone="no"?>
<!DOCTYPE svg PUBLIC "-//W3C//DTD SVG 20010904//EN"
 "http://www.w3.org/TR/2001/REC-SVG-20010904/DTD/svg10.dtd">
<svg version="1.0" xmlns="http://www.w3.org/2000/svg"
 width="1197.000000pt" height="1197.000000pt" viewBox="0 0 1197.000000 1197.000000"
 preserveAspectRatio="xMidYMid meet">

<g transform="translate(0.000000,1197.000000) scale(0.100000,-0.100000)"
fill="#000000" stroke="none">
<path d="M5670 10080 l0 -630 -945 0 -945 0 0 -315 0 -315 -315 0 -315 0 0
-315 0 -315 -315 0 -315 0 0 -315 0 -315 -315 0 -315 0 0 -1260 0 -1260 -315
0 -315 0 0 -315 0 -315 -315 0 -315 0 0 -315 0 -315 315 0 315 0 0 315 0 315
315 0 315 0 0 -630 0 -630 315 0 315 0 0 -315 0 -315 315 0 315 0 0 -315 0
-315 -315 0 -315 0 0 -315 0 -315 630 0 630 0 0 315 0 315 2205 0 2205 0 0
-315 0 -315 630 0 630 0 0 315 0 315 -315 0 -315 0 0 315 0 315 315 0 315 0 0
315 0 315 315 0 315 0 0 630 0 630 315 0 315 0 0 -315 0 -315 315 0 315 0 0
315 0 315 -315 0 -315 0 0 315 0 315 -315 0 -315 0 0 1260 0 1260 -315 0 -315
0 0 315 0 315 -315 0 -315 0 0 315 0 315 -315 0 -315 0 0 315 0 315 -945 0
-945 0 0 630 0 630 -315 0 -315 0 0 -630z m0 -1575 l0 -315 -945 0 -945 0 0
-315 0 -315 630 0 630 0 0 -315 0 -315 945 0 945 0 0 315 0 315 315 0 315 0 0
315 0 315 -630 0 -630 0 0 315 0 315 945 0 945 0 0 -315 0 -315 315 0 315 0 0
-630 0 -630 315 0 315 0 0 -1575 0 -1575 -315 0 -315 0 0 -315 0 -315 -315 0
-315 0 0 -315 0 -315 -2205 0 -2205 0 0 315 0 315 -315 0 -315 0 0 315 0 315
-315 0 -315 0 0 1575 0 1575 315 0 315 0 0 630 0 630 315 0 315 0 0 315 0 315
945 0 945 0 0 -315z"/>
<path d="M3780 4095 l0 -315 315 0 315 0 0 315 0 315 -315 0 -315 0 0 -315z"/>
<path d="M7560 4095 l0 -315 315 0 315 0 0 315 0 315 -315 0 -315 0 0 -315z"/>
</g>
</svg>
